<svg width="100" height="40" viewBox="0 0 100 40" fill="none" xmlns="http://www.w3.org/2000/svg">
<path d="M0.48584 7.17773H7.49365L23.2803 26.5444V11.6528C23.2803 10.0659 23.1025 9.07568 22.7471 8.68213C22.2773 8.14893 21.5347 7.88232 20.519 7.88232H19.624V7.17773H28.6123V7.88232H27.6982C26.6064 7.88232 25.832 8.2124 25.375 8.87256C25.0957 9.27881 24.9561 10.2056 24.9561 11.6528V33.4189H24.2705L7.24609 12.624V28.5249C7.24609 30.1118 7.41748 31.1021 7.76025 31.4956C8.24268 32.0288 8.98535 32.2954 9.98828 32.2954H10.9023V33H1.91406V32.2954H2.80908C3.91357 32.2954 4.69434 31.9653 5.15137 31.3052C5.43066 30.8989 5.57031 29.9722 5.57031 28.5249V10.5674C4.82129 9.69141 4.25 9.11377 3.85645 8.83447C3.47559 8.55518 2.91064 8.29492 2.16162 8.05371C1.79346 7.93945 1.23486 7.88232 0.48584 7.88232V7.17773ZM47.2938 15.5566V26.1255C47.2938 28.144 47.3383 29.3818 47.4271 29.8389C47.5287 30.2832 47.6811 30.5942 47.8842 30.772C48.1 30.9497 48.3476 31.0386 48.6269 31.0386C49.0204 31.0386 49.4647 30.9307 49.9599 30.7148L50.2265 31.3813L45.0087 33.5332H44.1518V29.8389C42.6537 31.4639 41.5111 32.4858 40.724 32.9048C39.9369 33.3237 39.1054 33.5332 38.2294 33.5332C37.2519 33.5332 36.4013 33.2539 35.6776 32.6953C34.9667 32.124 34.4716 31.394 34.1923 30.5054C33.913 29.6167 33.7733 28.3599 33.7733 26.7349V18.9463C33.7733 18.1211 33.6845 17.5498 33.5067 17.2324C33.329 16.915 33.0624 16.6738 32.7069 16.5088C32.3642 16.3311 31.7357 16.2485 30.8217 16.2612V15.5566H36.9345V27.23C36.9345 28.855 37.2138 29.9214 37.7724 30.4292C38.3437 30.937 39.0292 31.1909 39.829 31.1909C40.3749 31.1909 40.9906 31.0195 41.6762 30.6768C42.3744 30.334 43.1996 29.6802 44.1518 28.7153V18.832C44.1518 17.8418 43.9677 17.1753 43.5995 16.8325C43.244 16.4771 42.495 16.2866 41.3524 16.2612V15.5566H47.2938ZM65.4231 31.0386C64.5726 31.9272 63.741 32.5684 62.9285 32.9619C62.116 33.3428 61.24 33.5332 60.3006 33.5332C58.3963 33.5332 56.7332 32.7397 55.3113 31.1528C53.8895 29.5532 53.1785 27.5029 53.1785 25.002C53.1785 22.501 53.9656 20.2158 55.5398 18.1465C57.1141 16.0645 59.139 15.0234 61.6146 15.0234C63.1507 15.0234 64.4202 15.5122 65.4231 16.4897V13.2715C65.4231 11.2783 65.3724 10.0532 65.2708 9.59619C65.1819 9.13916 65.0359 8.82813 64.8328 8.66309C64.6297 8.49805 64.3758 8.41553 64.0711 8.41553C63.741 8.41553 63.303 8.51709 62.7571 8.72021L62.5096 8.05371L67.7083 5.9209H68.5652V26.0874C68.5652 28.1313 68.6097 29.3818 68.6985 29.8389C68.8001 30.2832 68.9524 30.5942 69.1556 30.772C69.3714 30.9497 69.6189 31.0386 69.8982 31.0386C70.241 31.0386 70.698 30.9307 71.2693 30.7148L71.4788 31.3813L66.2991 33.5332H65.4231V31.0386ZM65.4231 29.7056V20.7173C65.347 19.854 65.1185 19.0669 64.7376 18.356C64.3567 17.645 63.8489 17.1118 63.2142 16.7563C62.5921 16.3882 61.9827 16.2041 61.386 16.2041C60.2688 16.2041 59.2723 16.7056 58.3963 17.7085C57.241 19.0288 56.6634 20.9585 56.6634 23.4976C56.6634 26.062 57.222 28.0298 58.3392 29.4009C59.4563 30.7593 60.7005 31.4385 62.0716 31.4385C63.2269 31.4385 64.344 30.8608 65.4231 29.7056ZM77.135 22.1265C77.1223 24.7163 77.7507 26.7476 79.0202 28.2202C80.2897 29.6929 81.7814 30.4292 83.4953 30.4292C84.6379 30.4292 85.6281 30.1182 86.466 29.4961C87.3166 28.8613 88.0275 27.7822 88.5988 26.2588L89.1892 26.6396C88.9226 28.3789 88.1481 29.9658 86.8659 31.4004C85.5837 32.8223 83.9777 33.5332 82.048 33.5332C79.9533 33.5332 78.1569 32.7207 76.6589 31.0957C75.1735 29.458 74.4309 27.2617 74.4309 24.5068C74.4309 21.5234 75.1926 19.2002 76.716 17.5371C78.2522 15.8613 80.1755 15.0234 82.486 15.0234C84.4411 15.0234 86.0471 15.6709 87.3039 16.9658C88.5607 18.248 89.1892 19.9683 89.1892 22.1265H77.135ZM77.135 21.022H85.2092C85.1457 19.9048 85.0124 19.1177 84.8093 18.6606C84.4919 17.9497 84.0158 17.3911 83.3811 16.9849C82.759 16.5786 82.1052 16.3755 81.4196 16.3755C80.3659 16.3755 79.4201 16.7881 78.5822 17.6133C77.757 18.4258 77.2746 19.562 77.135 21.022Z" fill="#3E3E42"/>
<path d="M95.7988 16.2275C96.3815 16.2275 96.9495 16.3773 97.5029 16.6768C98.0563 16.973 98.4876 17.3994 98.7969 17.9561C99.1094 18.5094 99.2656 19.0872 99.2656 19.6895C99.2656 20.2884 99.1126 20.863 98.8066 21.4131C98.5007 21.9632 98.0726 22.3913 97.5225 22.6973C96.9723 23 96.3978 23.1514 95.7988 23.1514C95.1999 23.1514 94.6253 23 94.0752 22.6973C93.5283 22.3913 93.1019 21.9632 92.7959 21.4131C92.4899 20.863 92.3369 20.2884 92.3369 19.6895C92.3369 19.0872 92.4915 18.5094 92.8008 17.9561C93.1133 17.3994 93.5462 16.973 94.0996 16.6768C94.653 16.3773 95.2194 16.2275 95.7988 16.2275ZM95.7988 16.5254C95.2682 16.5254 94.7507 16.6621 94.2461 16.9355C93.7415 17.209 93.3477 17.5996 93.0645 18.1074C92.7812 18.612 92.6396 19.1393 92.6396 19.6895C92.6396 20.2363 92.778 20.7604 93.0547 21.2617C93.3346 21.763 93.7253 22.1536 94.2266 22.4336C94.7279 22.7135 95.252 22.8535 95.7988 22.8535C96.3457 22.8535 96.8698 22.7135 97.3711 22.4336C97.8757 22.1536 98.2663 21.763 98.543 21.2617C98.8229 20.7604 98.9629 20.2363 98.9629 19.6895C98.9629 19.1393 98.8213 18.612 98.5381 18.1074C98.2549 17.5996 97.861 17.209 97.3564 16.9355C96.8519 16.6621 96.3327 16.5254 95.7988 16.5254ZM93.8848 17.5605H95.7695C96.2415 17.5605 96.6012 17.668 96.8486 17.8828C97.096 18.0944 97.2197 18.3516 97.2197 18.6543C97.2197 18.9017 97.1351 19.1198 96.9658 19.3086C96.7998 19.4941 96.5231 19.6374 96.1357 19.7383L97.1562 21.1934C97.2799 21.3659 97.3906 21.4847 97.4883 21.5498C97.5501 21.5889 97.6364 21.6133 97.7471 21.623V21.7842H96.8486L95.4131 19.8066H95.042V21.3154C95.0615 21.4229 95.1071 21.501 95.1787 21.5498C95.2536 21.5986 95.4001 21.623 95.6182 21.623V21.7842H93.8262V21.623C93.9824 21.623 94.0931 21.6051 94.1582 21.5693C94.2233 21.5303 94.2705 21.4749 94.2998 21.4033C94.3226 21.3512 94.334 21.1999 94.334 20.9492V18.3955C94.334 18.1546 94.3291 18.013 94.3193 17.9707C94.2965 17.8958 94.2542 17.8389 94.1924 17.7998C94.1338 17.7575 94.0312 17.7363 93.8848 17.7363V17.5605ZM95.042 19.5967C95.4261 19.5967 95.7061 19.5592 95.8818 19.4844C96.0609 19.4095 96.1976 19.3053 96.292 19.1719C96.3864 19.0352 96.4336 18.8805 96.4336 18.708C96.4336 18.4443 96.3408 18.223 96.1553 18.0439C95.973 17.8649 95.7386 17.7754 95.4521 17.7754C95.3285 17.7754 95.1917 17.8014 95.042 17.8535V19.5967Z" fill="#3E3E42"/>
</svg>
